<svg width="41" height="40" viewBox="0 0 41 40" fill="none" xmlns="http://www.w3.org/2000/svg">
<rect width="41" height="40" rx="8.47676" fill="white"/>
<path d="M15.7096 11.875C13.0637 11.875 10.918 13.9987 10.918 16.6187C10.918 18.7338 11.7565 23.7535 20.0106 28.8279C20.1585 28.9179 20.3282 28.9655 20.5013 28.9655C20.6744 28.9655 20.8441 28.9179 20.992 28.8279C29.2461 23.7535 30.0846 18.7338 30.0846 16.6187C30.0846 13.9987 27.9389 11.875 25.293 11.875C22.647 11.875 20.5013 14.75 20.5013 14.75C20.5013 14.75 18.3556 11.875 15.7096 11.875Z" stroke="#FB464D" stroke-width="2" stroke-linecap="round" stroke-linejoin="round"/>
<rect x="0.5" y="0.5" width="40" height="39" rx="7.97676" stroke="#FB464D" stroke-opacity="0.7"/>
</svg>
