<svg width="80" height="80" viewBox="0 0 80 80" fill="none" xmlns="http://www.w3.org/2000/svg">
<path d="M44.9699 29.6874L39.9999 26.9399L35.0299 29.6874C34.9613 30.1053 34.7876 30.499 34.5252 30.8314C34.2627 31.1638 33.9202 31.4241 33.5296 31.5879C33.139 31.7516 32.7132 31.8135 32.2922 31.7676C31.8711 31.7217 31.4687 31.5696 31.1225 31.3256C30.7764 31.0816 30.4979 30.7536 30.3132 30.3725C30.1285 29.9913 30.0437 29.5695 30.0666 29.1466C30.0896 28.7237 30.2197 28.3136 30.4446 27.9547C30.6695 27.5958 30.9819 27.3 31.3524 27.0949L32.3299 21.1049L28.2124 16.8849C27.7889 16.9495 27.3559 16.9041 26.9549 16.7532C26.5539 16.6022 26.1985 16.3508 25.9227 16.0229C25.6469 15.6951 25.4599 15.3019 25.3798 14.881C25.2997 14.4602 25.3291 14.0258 25.4651 13.6195C25.6012 13.2133 25.8393 12.8488 26.1568 12.5611C26.4742 12.2734 26.8603 12.0721 27.2779 11.9765C27.6955 11.8809 28.1307 11.8942 28.5417 12.0152C28.9527 12.1362 29.3257 12.3608 29.6249 12.6674L35.2149 11.8124L37.7374 6.43742C37.9378 6.00628 38.2573 5.64138 38.6581 5.38568C39.0589 5.12999 39.5245 4.99414 39.9999 4.99414C40.4754 4.99414 40.9409 5.12999 41.3417 5.38568C41.7426 5.64138 42.062 6.00628 42.2624 6.43742L44.7849 11.8124L50.3749 12.6674C50.8289 12.7375 51.2548 12.9312 51.606 13.2273C51.9572 13.5233 52.2201 13.9103 52.366 14.3459C52.5118 14.7814 52.535 15.2487 52.433 15.6966C52.3309 16.1444 52.1076 16.5556 51.7874 16.8849L47.6699 21.1049L48.6474 27.0949C48.7235 27.5582 48.6676 28.0336 48.486 28.4667C48.3045 28.8997 48.0047 29.2728 47.6209 29.5434C47.2372 29.8139 46.785 29.9709 46.3161 29.9964C45.8473 30.0218 45.3807 29.9148 44.9699 29.6874Z" fill="#186EDF"/>
<path d="M15.745 54.9599C15.2832 54.8771 14.854 54.666 14.5065 54.3508C14.159 54.0356 13.9073 53.629 13.78 53.1774L12.1325 47.3349L6.61497 45.2499C6.18476 45.0875 5.80768 44.8096 5.52519 44.4468C5.2427 44.084 5.06575 43.6502 5.01381 43.1934C4.96186 42.7365 5.03694 42.2741 5.23077 41.8571C5.42461 41.4401 5.72969 41.0847 6.11247 40.8299L10.82 37.6924L10.835 31.7549C10.8362 31.28 10.9726 30.8153 11.2283 30.4152C11.4839 30.015 11.8483 29.696 12.2787 29.4954C12.709 29.2947 13.1877 29.2208 13.6585 29.2823C14.1294 29.3437 14.573 29.538 14.9375 29.8424L19.495 33.6474L24.9225 32.0574C25.3636 31.9282 25.8317 31.9231 26.2756 32.0426C26.7194 32.1622 27.1216 32.4018 27.4382 32.7351C27.7547 33.0684 27.9732 33.4825 28.0696 33.9319C28.1661 34.3813 28.1368 34.8486 27.985 35.2824L26.035 40.8499L29.4525 45.8674C29.99 46.6574 30.03 47.6899 29.555 48.5199C29.3238 48.9288 28.981 49.2635 28.5666 49.4849C28.1522 49.7062 27.6834 49.8051 27.215 49.7699L21.55 49.3799L18.205 53.9699C17.9298 54.3499 17.5529 54.6444 17.1177 54.8196C16.6825 54.9948 16.2066 55.0434 15.745 54.9599Z" fill="#186EDF"/>
<path d="M37.3074 72.6349L35.0074 37.4524C34.8399 34.8799 36.9374 32.6649 39.6949 32.5074C42.6249 32.3399 45.1574 34.5699 44.9899 37.4524L42.6899 72.6349C42.5999 74.0224 41.3199 75.0799 39.8349 74.9949C38.4599 74.9174 37.3874 73.8874 37.3074 72.6349Z" fill="#186EDF"/>
<path d="M61.795 53.9727L58.45 49.3827L52.785 49.7727C52.3165 49.8085 51.8474 49.7099 51.433 49.4885C51.0185 49.2671 50.6758 48.932 50.445 48.5227C50.2113 48.1155 50.097 47.6508 50.1151 47.1817C50.1333 46.7126 50.2831 46.2581 50.5475 45.8702L53.965 40.8527L52.015 35.2852C51.8612 34.8512 51.8305 34.3832 51.9263 33.9329C52.022 33.4826 52.2405 33.0676 52.5575 32.7337C52.8745 32.3999 53.2777 32.1603 53.7225 32.0414C54.1672 31.9225 54.6362 31.929 55.0775 32.0602L60.505 33.6502L65.0625 29.8452C65.4263 29.5387 65.8702 29.3426 66.3418 29.28C66.8134 29.2174 67.293 29.2909 67.7242 29.492C68.1554 29.693 68.5201 30.013 68.7754 30.4145C69.0307 30.8159 69.1658 31.282 69.165 31.7577L69.18 37.6952L73.8875 40.8327C74.2703 41.0875 74.5754 41.4429 74.7692 41.8599C74.963 42.2769 75.0381 42.7393 74.9862 43.1961C74.9342 43.653 74.7573 44.0867 74.4748 44.4496C74.1923 44.8124 73.8152 45.0903 73.385 45.2527L67.8675 47.3377L66.22 53.1802C66.094 53.6325 65.8428 54.0401 65.4955 54.356C65.1481 54.672 64.7187 54.8835 64.2564 54.9663C63.7942 55.0491 63.318 54.9998 62.8826 54.824C62.4472 54.6482 62.0702 54.3531 61.795 53.9727Z" fill="#186EDF"/>
<path d="M58.3474 59.0075C56.2449 63.2525 54.1574 67.11 52.4124 73.185C52.2409 73.7962 51.8436 74.3193 51.3009 74.6485C50.7582 74.9778 50.1106 75.0884 49.4893 74.9581C48.8681 74.8278 48.3196 74.4663 47.9548 73.9468C47.5901 73.4273 47.4364 72.7886 47.5249 72.16L47.5324 72.1C48.4199 65.52 50.1099 60.8225 51.5974 56.2775L51.6049 56.25C51.7635 55.7766 52.0176 55.3407 52.3513 54.9693C52.6851 54.598 53.0915 54.2991 53.5454 54.0911C53.9993 53.8831 54.4911 53.7704 54.9903 53.7601C55.4895 53.7497 55.9855 53.8419 56.4476 54.0309C56.9098 54.2199 57.3282 54.5017 57.6771 54.8589C58.026 55.2161 58.2978 55.6411 58.4759 56.1075C58.654 56.574 58.7345 57.072 58.7124 57.5708C58.6903 58.0696 58.5661 58.5586 58.3474 59.0075Z" fill="#186EDF"/>
<path d="M28.405 56.28C29.795 60.5325 31.5675 65.4025 32.47 72.1025L32.4775 72.1625C32.5714 72.7937 32.4205 73.4369 32.0558 73.9605C31.6911 74.4842 31.1402 74.8487 30.5156 74.9797C29.8911 75.1106 29.2401 74.9979 28.6958 74.6648C28.1516 74.3317 27.7551 73.8032 27.5875 73.1875C25.885 67.2375 23.825 63.4 21.6525 59.01C21.4354 58.5619 21.3122 58.0741 21.2906 57.5766C21.2689 57.0791 21.3493 56.5825 21.5268 56.1173C21.7042 55.652 21.975 55.228 22.3225 54.8713C22.6699 54.5146 23.0866 54.2328 23.5471 54.0431C24.0075 53.8535 24.5018 53.7601 24.9997 53.7686C25.4976 53.7771 25.9884 53.8875 26.4421 54.0928C26.8957 54.2981 27.3026 54.594 27.6376 54.9625C27.9726 55.3309 28.2286 55.7639 28.39 56.235L28.405 56.28Z" fill="#186EDF"/>
</svg>
