<svg width="80" height="80" viewBox="0 0 80 80" fill="none" xmlns="http://www.w3.org/2000/svg">
<path d="M40 40.7849C40.4326 40.7849 40.7833 40.4342 40.7833 40.0016C40.7833 39.569 40.4326 39.2183 40 39.2183C39.5674 39.2183 39.2167 39.569 39.2167 40.0016C39.2167 40.4342 39.5674 40.7849 40 40.7849Z" fill="#0073E6"/>
<path d="M40 15.8352C26.65 15.8352 15.8334 26.6519 15.8334 40.0019C15.8334 53.3519 26.65 64.1685 40 64.1685C53.35 64.1685 64.1667 53.3519 64.1667 40.0019C64.1667 26.6519 53.35 15.8352 40 15.8352ZM47.7834 24.0352L48.95 22.0019C49.3 21.4019 50.05 21.1852 50.6667 21.5352C51.25 21.8852 51.4667 22.6519 51.1167 23.2519L49.95 25.2852C49.7167 25.6852 49.2834 25.9019 48.8667 25.9019C48.65 25.9019 48.4334 25.8519 48.2334 25.7352C47.6334 25.3852 47.4334 24.6185 47.7834 24.0352ZM38.75 19.9352C38.75 19.2352 39.3167 18.6852 40 18.6852C40.6834 18.6852 41.25 19.2352 41.25 19.9352V22.2852C41.25 22.9685 40.6834 23.5352 40 23.5352C39.3167 23.5352 38.75 22.9685 38.75 22.2852V19.9352ZM18.6834 40.0019C18.6834 39.3185 19.25 38.7519 19.9334 38.7519H22.2834C22.9667 38.7519 23.5334 39.3185 23.5334 40.0019C23.5334 40.6852 22.9667 41.2519 22.2834 41.2519H19.9334C19.25 41.2519 18.6834 40.6852 18.6834 40.0019ZM25.2834 49.9519L23.25 51.1185C23.05 51.2352 22.8334 51.2852 22.6167 51.2852C22.1834 51.2852 21.7667 51.0685 21.5334 50.6685C21.2 50.0685 21.4 49.3019 22 48.9519L24.0334 47.7852C24.6334 47.4352 25.3834 47.6352 25.7334 48.2352C26.0834 48.8352 25.8667 49.6019 25.2834 49.9519ZM25.7334 31.7685C25.5 32.1685 25.0834 32.3852 24.65 32.3852C24.4334 32.3852 24.2167 32.3352 24.0334 32.2185L22 31.0519C21.4 30.7019 21.2 29.9352 21.5334 29.3352C21.8834 28.7519 22.65 28.5352 23.25 28.8852L25.2834 30.0519C25.8667 30.4019 26.0834 31.1685 25.7334 31.7685ZM32.2167 55.9685L31.05 58.0019C30.8167 58.4019 30.4 58.6352 29.9667 58.6352C29.75 58.6352 29.5334 58.5852 29.3334 58.4685C28.75 58.1185 28.5334 57.3519 28.8834 56.7519L30.05 54.7185C30.4 54.1352 31.1667 53.9185 31.7667 54.2685C32.3667 54.6185 32.5667 55.3685 32.2167 55.9685ZM31.7667 25.7352C31.5667 25.8519 31.35 25.9019 31.1334 25.9019C30.7 25.9019 30.2834 25.6852 30.05 25.2852L28.8834 23.2519C28.5334 22.6519 28.75 21.8852 29.35 21.5352C29.9334 21.1852 30.7 21.4019 31.05 22.0019L32.2167 24.0352C32.5667 24.6352 32.3667 25.3852 31.7667 25.7352ZM41.25 60.0685C41.25 60.7519 40.6834 61.3185 40 61.3185C39.3167 61.3185 38.75 60.7519 38.75 60.0685V57.7185C38.75 57.0352 39.3167 56.4685 40 56.4685C40.6834 56.4685 41.25 57.0352 41.25 57.7185V60.0685ZM50.6667 58.4685C50.4667 58.5852 50.25 58.6352 50.0334 58.6352C49.6 58.6352 49.1834 58.4019 48.95 58.0019L47.7834 55.9685C47.4334 55.3685 47.6334 54.6185 48.2334 54.2685C48.8334 53.9185 49.6 54.1352 49.95 54.7185L51.1167 56.7519C51.4667 57.3519 51.25 58.1185 50.6667 58.4685ZM52.6834 41.2519H43.0334C42.5334 42.4352 41.3667 43.2852 40 43.2852C38.2 43.2852 36.7167 41.8019 36.7167 40.0019C36.7167 38.6352 37.5667 37.4685 38.75 36.9685V31.6852C38.75 30.9852 39.3167 30.4352 40 30.4352C40.6834 30.4352 41.25 30.9852 41.25 31.6852V36.9685C42.05 37.3019 42.7 37.9519 43.0334 38.7519H52.6834C53.3667 38.7519 53.9334 39.3185 53.9334 40.0019C53.9334 40.6852 53.3667 41.2519 52.6834 41.2519ZM58.4667 50.6685C58.2334 51.0685 57.8167 51.2852 57.3834 51.2852C57.1667 51.2852 56.95 51.2352 56.75 51.1185L54.7167 49.9519C54.1167 49.6019 53.9167 48.8352 54.2667 48.2352C54.6167 47.6352 55.3667 47.4352 55.9667 47.7852L58 48.9519C58.6 49.3019 58.8 50.0685 58.4667 50.6685ZM61.3167 40.0019C61.3167 40.6852 60.75 41.2519 60.0667 41.2519H57.7167C57.0334 41.2519 56.4667 40.6852 56.4667 40.0019C56.4667 39.3185 57.0334 38.7519 57.7167 38.7519H60.0667C60.75 38.7519 61.3167 39.3185 61.3167 40.0019ZM58.4667 29.3352C58.8 29.9352 58.6 30.7019 58 31.0519L55.9667 32.2185C55.7667 32.3352 55.5667 32.3852 55.35 32.3852C54.9167 32.3852 54.5 32.1685 54.2667 31.7685C53.9167 31.1685 54.1167 30.4019 54.7167 30.0519L56.75 28.8852C57.35 28.5352 58.1167 28.7519 58.4667 29.3352ZM72.6317 25.4902C72.84 25.9535 73.295 26.2285 73.7734 26.2285C73.945 26.2285 74.1184 26.1935 74.285 26.1202C74.915 25.8385 75.1967 25.0985 74.915 24.4685C73.9967 22.4185 72.8884 20.4352 71.6234 18.5785C71.235 18.0085 70.46 17.8635 69.885 18.2502C69.315 18.6385 69.1684 19.4169 69.5567 19.9885C70.7384 21.7219 71.7734 23.5735 72.6317 25.4902ZM60.055 69.6435C58.5617 70.6535 56.98 71.5635 55.35 72.3435C54.7284 72.6419 54.465 73.3885 54.7617 74.0119C54.9767 74.4602 55.4234 74.7219 55.8917 74.7219C56.0717 74.7219 56.2567 74.6835 56.43 74.6002C58.1717 73.7652 59.865 72.7935 61.4584 71.7135C62.03 71.3252 62.18 70.5485 61.7917 69.9769C61.4017 69.4052 60.6267 69.2535 60.055 69.6435ZM49.53 74.5169C40.3567 77.0385 30.3017 75.7102 22.115 71.0135L27.1617 69.7552C27.83 69.5885 28.2384 68.9102 28.0717 68.2402C27.905 67.5702 27.23 67.1619 26.5567 67.3302L18.7167 69.2852C18.0484 69.4519 17.64 70.1302 17.8067 70.8002L19.7617 78.6402C19.9034 79.2085 20.4134 79.5869 20.9734 79.5869C21.075 79.5869 21.175 79.5752 21.2784 79.5502C21.9467 79.3835 22.355 78.7052 22.1884 78.0352L20.9984 73.2635C26.7917 76.5552 33.4484 78.2719 40.1234 78.2719C43.5134 78.2719 46.9067 77.8285 50.1934 76.9269C50.8584 76.7435 51.2517 76.0569 51.0684 75.3902C50.8817 74.7269 50.2 74.3402 49.53 74.5169ZM7.7117 55.4669C7.41336 54.8452 6.67003 54.5802 6.04503 54.8802C5.4217 55.1785 5.16003 55.9252 5.45836 56.5469C6.2967 58.2952 7.26836 59.9835 8.34503 61.5652C8.58836 61.9219 8.98003 62.1119 9.38003 62.1119C9.62336 62.1119 9.8667 62.0419 10.0817 61.8952C10.6534 61.5069 10.8017 60.7285 10.4117 60.1585C9.40503 58.6785 8.4967 57.1002 7.7117 55.4669ZM19.2134 10.7169C19.455 10.7169 19.6984 10.6469 19.9134 10.5002C21.6584 9.31688 23.5134 8.28187 25.43 7.42521C26.0617 7.14354 26.3434 6.40521 26.0617 5.77521C25.78 5.14187 25.035 4.85854 24.4117 5.14354C22.3617 6.06021 20.375 7.16687 18.5117 8.43354C17.94 8.82021 17.79 9.59854 18.18 10.1685C18.42 10.5252 18.8134 10.7169 19.2134 10.7169ZM30.44 5.62854C39.5284 3.13187 49.48 4.41187 57.6217 8.99854L52.6234 10.2435C51.955 10.4102 51.5467 11.0885 51.7134 11.7585C51.855 12.3269 52.365 12.7052 52.925 12.7052C53.0267 12.7052 53.1267 12.6935 53.23 12.6685L61.07 10.7135C61.5434 10.5952 61.875 10.2169 61.975 9.77021C61.9817 9.74687 61.995 9.72521 62 9.70021C62.0034 9.68354 61.9984 9.66521 62 9.64854C62.0267 9.47521 62.01 9.30354 61.9634 9.13687L60.0234 1.35854C59.8567 0.688541 59.1784 0.280208 58.5084 0.448541C57.84 0.615208 57.4317 1.29354 57.5984 1.96354L58.8034 6.79521C50.1 1.91187 39.4734 0.553541 29.7784 3.21521C29.1134 3.39854 28.72 4.08521 28.9034 4.75187C29.0884 5.41854 29.77 5.80521 30.44 5.62854ZM79.5084 58.3619C79.2717 57.7135 78.56 57.3835 77.905 57.6152L72.955 59.4185C77.99 50.8152 79.505 40.5052 77.08 30.7452C76.9134 30.0735 76.2284 29.6669 75.5667 29.8335C74.8967 30.0002 74.4884 30.6785 74.655 31.3469C76.9184 40.4585 75.5084 50.0785 70.8184 58.1135L69.1517 53.5319C68.915 52.8835 68.2034 52.5519 67.5484 52.7852C66.9 53.0219 66.565 53.7385 66.8017 54.3885L69.565 61.9819C69.75 62.4902 70.2284 62.8035 70.74 62.8035C70.8817 62.8035 71.0267 62.7785 71.1684 62.7285L78.7617 59.9652C79.4084 59.7285 79.7434 59.0102 79.5084 58.3619ZM10.635 18.9885C10.5517 18.6952 10.36 18.4685 10.125 18.3085C10.1084 18.2952 10.0984 18.2752 10.0817 18.2635C10.0767 18.2602 10.07 18.2602 10.0634 18.2552C10.02 18.2302 9.9717 18.2185 9.9267 18.1985C9.54503 18.0102 9.11003 18.0219 8.75503 18.2269L1.3217 20.3585C0.660031 20.5485 0.275031 21.2402 0.465031 21.9052C0.653364 22.5669 1.34003 22.9585 2.0117 22.7619L6.61503 21.4419C1.63336 30.4285 0.401698 41.3235 3.39336 51.2235C3.5567 51.7635 4.05336 52.1119 4.59003 52.1119C4.70836 52.1119 4.8317 52.0952 4.9517 52.0585C5.6117 51.8602 5.9867 51.1619 5.7867 50.5002C2.95336 41.1185 4.1717 30.7819 8.99003 22.3169L10.4617 27.4452C10.6184 27.9935 11.12 28.3502 11.6634 28.3502C11.7767 28.3502 11.8934 28.3352 12.0084 28.3019C12.67 28.1119 13.055 27.4202 12.865 26.7552L10.635 18.9885Z" fill="#0073E6"/>
</svg>
