<svg xmlns="http://www.w3.org/2000/svg" width="50" height="50" viewBox="0 0 50 50"><defs><style>.a,.b{fill:none;stroke:#fff;stroke-miterlimit:10;stroke-width:1.1px;}.a{stroke-linecap:round;}</style></defs><path class="a" d="M31.0672,17.8007H43.4944"/><path class="a" d="M31.0672,21.784h13.445"/><path class="a" d="M31.0672,26.5316h13.445"/><path class="a" d="M31.0672,31.2029h6.9715"/><path class="b" d="M31.44,47.1952H13.9129a2.1268,2.1268,0,0,1-2.1243-2.1244V38.812m0-24.4366V3.0019A2.1268,2.1268,0,0,1,13.9129.8775h24.45a2.1183,2.1183,0,0,1,.4578.05V7.49a2.4873,2.4873,0,0,0,2.4845,2.4845h6.562a2.12,2.12,0,0,1,.05.4577V45.0708a2.1269,2.1269,0,0,1-2.1244,2.1244H36.6843M5.75,35.4626a12.5409,12.5409,0,1,1,18.711-1.0952A12.7229,12.7229,0,0,1,22.39,36.4381,12.5463,12.5463,0,0,1,5.75,35.4626Z"/><path class="b" d="M30.7057,4.1124H16.4081a1.5518,1.5518,0,0,0-1.55,1.55v2.762a1.5518,1.5518,0,0,0,1.55,1.55H30.7057a1.5517,1.5517,0,0,0,1.55-1.55V5.6624A1.5519,1.5519,0,0,0,30.7057,4.1124Z"/><path class="a" d="M4.9005,28.216a9.7787,9.7787,0,1,0-.0325-3.1708A9.311,9.311,0,0,0,4.9005,28.216Zm5.6083-.9306v-.7123H13.22a4.527,4.527,0,0,0,2.3651-.6667,2.9113,2.9113,0,0,1,1.7811-.4134l1.1416.1071c.0006.5036.0019,1.1681.0048,1.6823a1.0153,1.0153,0,0,0-.8373.939,3.1758,3.1758,0,0,1-6.3395.0024,1.0228,1.0228,0,0,0-.8271-.9384Z"/><path class="b" d="M16.9511,30.0556l.0818,1.03a2.6891,2.6891,0,0,0,.26,1.1419,4.795,4.795,0,0,1-2.6745.82h-.0145a4.7948,4.7948,0,0,1-2.6559-.7984,2.6887,2.6887,0,0,0,.2512-1.1435l-.004-.9386"/><path class="b" d="M10.5149,26.2887l.0064-2.3878a2.0848,2.0848,0,0,1,2.0465-2.1169h3.931a.3744.3744,0,0,1,.3675.38A1.2361,1.2361,0,0,0,18.08,23.4191h.04a.3744.3744,0,0,1,.3675.38l.0064,1.5105"/><path class="b" d="M11.917,32.1676a7.689,7.689,0,0,0-4.0088,1.5567"/><path class="b" d="M17.2619,32.1676A7.5028,7.5028,0,0,1,21.21,33.68"/><path class="b" d="M22.8736,36.1858A11.3942,11.3942,0,0,0,23.9194,35.14l2.0649,2.092-1.1529,1.1857-2.0783-2.1112c-.0153-.0175-.001.0008,0,0Z"/><path class="b" d="M32.6671,48.4288,24.11,39.8251a.3176.3176,0,0,1,0-.4472l.0124-.0125.0006-.0007L26.994,36.478a.3137.3137,0,0,1,.4448,0l8.5573,8.6039a2.3787,2.3787,0,0,1,0,3.3469,2.3439,2.3439,0,0,1-3.329,0Z"/><line class="a" x1="39.172" y1="1.0074" x2="47.7963" y2="9.6305"/></svg>