<svg width="80" height="80" viewBox="0 0 80 80" fill="none" xmlns="http://www.w3.org/2000/svg">
<g clip-path="url(#clip0_12733_63957)">
<path d="M79.9999 13.3333C79.9999 9.79711 78.5952 6.40573 76.0947 3.90524C73.5942 1.40476 70.2028 0 66.6666 0C63.1304 0 59.739 1.40476 57.2385 3.90524C54.738 6.40573 53.3333 9.79711 53.3333 13.3333C53.3333 19.7 62.7666 32.6333 64.9999 35.5667C64.9999 36.5 64.9999 37.4333 64.9999 38.3C64.9955 38.5217 65.0353 38.742 65.1171 38.948C65.1989 39.1541 65.3209 39.3418 65.4761 39.5001C65.6313 39.6584 65.8166 39.7842 66.021 39.87C66.2254 39.9559 66.4449 40 66.6666 40C67.1029 40.0001 67.5219 39.8291 67.8335 39.5237C68.1451 39.2183 68.3245 38.8029 68.3333 38.3667C68.3333 37.5 68.3333 36.5333 68.3333 35.5667C70.5333 32.6667 79.9999 19.7333 79.9999 13.3333ZM63.3333 13.3333C63.3333 12.6741 63.5287 12.0296 63.895 11.4814C64.2613 10.9333 64.7819 10.506 65.391 10.2537C66.0001 10.0014 66.6703 9.93543 67.3169 10.064C67.9635 10.1927 68.5574 10.5101 69.0236 10.9763C69.4898 11.4425 69.8073 12.0364 69.9359 12.683C70.0645 13.3296 69.9985 13.9999 69.7462 14.6089C69.4939 15.218 69.0667 15.7386 68.5185 16.1049C67.9703 16.4712 67.3259 16.6667 66.6666 16.6667C65.7825 16.6667 64.9347 16.3155 64.3096 15.6904C63.6844 15.0652 63.3333 14.2174 63.3333 13.3333Z" fill="#186EDF"/>
<path d="M51 48.0333C48.6801 49.5125 46.8662 51.6636 45.8 54.2C45.6868 54.399 45.6159 54.6191 45.5915 54.8467C45.5671 55.0743 45.5899 55.3045 45.6584 55.5229C45.7269 55.7413 45.8397 55.9432 45.9897 56.1161C46.1397 56.2891 46.3237 56.4292 46.5302 56.5279C46.7367 56.6266 46.9614 56.6817 47.1901 56.6897C47.4189 56.6977 47.6469 56.6586 47.8598 56.5746C48.0728 56.4907 48.2662 56.3638 48.4279 56.2019C48.5897 56.0399 48.7163 55.8464 48.8 55.6333C49.5545 53.6953 50.8945 52.0408 52.6333 50.9C52.9927 50.6708 53.2506 50.3126 53.354 49.8992C53.4574 49.4857 53.3985 49.0483 53.1893 48.6769C52.9802 48.3055 52.6367 48.0284 52.2295 47.9025C51.8222 47.7766 51.3823 47.8115 51 48V48.0333Z" fill="#186EDF"/>
<path d="M35.8333 72.2331C34.0884 73.5887 32.1119 74.6165 30 75.2664C29.558 75.3327 29.1604 75.5719 28.8947 75.9314C28.6291 76.2908 28.517 76.7411 28.5834 77.1831C28.6497 77.6251 28.8888 78.0227 29.2483 78.2884C29.6077 78.5541 30.058 78.6661 30.5 78.5998H31C33.4736 77.8154 35.7876 76.5963 37.8333 74.9998C38.137 74.7132 38.322 74.323 38.3517 73.9065C38.3815 73.49 38.2538 73.0776 37.994 72.7507C37.7342 72.4238 37.3612 72.2064 36.9487 72.1414C36.5362 72.0764 36.1144 72.1686 35.7667 72.3998L35.8333 72.2331Z" fill="#186EDF"/>
<path d="M45.2333 59.9999C45.0277 59.9197 44.8082 59.881 44.5875 59.8862C44.3669 59.8914 44.1495 59.9404 43.9479 60.0304C43.7463 60.1203 43.5646 60.2494 43.4133 60.4101C43.2621 60.5708 43.1442 60.76 43.0666 60.9666C42.2357 63.1545 41.2093 65.263 40 67.2666C39.8128 67.64 39.7726 68.0702 39.8875 68.4718C40.0023 68.8734 40.2638 69.2172 40.6202 69.4352C40.9765 69.6532 41.4017 69.7294 41.8115 69.6488C42.2214 69.5682 42.5861 69.3366 42.8333 69C44.1389 66.8804 45.2543 64.6495 46.1666 62.3333C46.2752 62.1214 46.3371 61.8886 46.3482 61.6507C46.3593 61.4129 46.3192 61.1754 46.2308 60.9543C46.1424 60.7332 46.0076 60.5336 45.8355 60.369C45.6634 60.2044 45.4581 60.0785 45.2333 59.9999Z" fill="#186EDF"/>
<path d="M63.7333 44.3666C63.2 45.1666 62.0667 46.3 58.6667 46.6C58.2246 46.6 57.8007 46.7756 57.4882 47.0881C57.1756 47.4007 57 47.8246 57 48.2666C57 48.7087 57.1756 49.1326 57.4882 49.4452C57.8007 49.7577 58.2246 49.9333 58.6667 49.9333C60.1195 49.9412 61.5547 49.6146 62.8611 48.9787C64.1674 48.3429 65.3099 47.4149 66.2 46.2666C66.4475 45.8998 66.5392 45.4496 66.4548 45.0151C66.3704 44.5806 66.1169 44.1975 65.75 43.95C65.3831 43.7024 64.9329 43.6108 64.4985 43.6952C64.064 43.7796 63.6809 44.0331 63.4333 44.4L63.7333 44.3666Z" fill="#186EDF"/>
<path d="M23.9334 76.6665C29.2 71.0665 40 58.1665 40 46.6665C40.0267 44.0327 39.5277 41.4199 38.5321 38.9814C37.5364 36.5428 36.0643 34.3273 34.2017 32.4648C32.3392 30.6023 30.1238 29.1301 27.6852 28.1345C25.2466 27.1389 22.6339 26.6398 20 26.6665C17.3662 26.6398 14.7534 27.1389 12.3148 28.1345C9.87625 29.1301 7.66083 30.6023 5.7983 32.4648C3.93578 34.3273 2.4636 36.5428 1.46798 38.9814C0.472356 41.4199 -0.0266979 44.0327 4.39824e-05 46.6665C4.39824e-05 61.4665 17.8334 78.5665 18.8334 79.4999H19.0667L19.3667 79.6665C19.5512 79.8222 19.7673 79.9359 20 79.9999C21.2222 79.9999 22.3334 79.9999 23.3334 79.9999C23.5525 79.9831 23.7661 79.9231 23.962 79.8233C24.1578 79.7236 24.332 79.5862 24.4745 79.4189C24.617 79.2516 24.725 79.0578 24.7923 78.8485C24.8596 78.6393 24.8849 78.4189 24.8667 78.1999C24.8778 77.8811 24.7954 77.566 24.6295 77.2935C24.4637 77.021 24.2217 76.8031 23.9334 76.6665ZM10 46.6665C10 44.6887 10.5865 42.7553 11.6853 41.1108C12.7841 39.4664 14.3459 38.1846 16.1732 37.4278C18.0005 36.6709 20.0111 36.4728 21.9509 36.8587C23.8907 37.2445 25.6726 38.197 27.0711 39.5955C28.4696 40.994 29.422 42.7758 29.8079 44.7156C30.1937 46.6555 29.9957 48.6661 29.2388 50.4934C28.4819 52.3206 27.2002 53.8824 25.5557 54.9812C23.9112 56.0801 21.9778 56.6665 20 56.6665C17.3479 56.6665 14.8043 55.613 12.929 53.7376C11.0536 51.8623 10 49.3187 10 46.6665Z" fill="#186EDF"/>
</g>
<defs>
<clipPath id="clip0_12733_63957">
<rect width="80" height="80" fill="white"/>
</clipPath>
</defs>
</svg>
