<svg width="68" height="70" viewBox="0 0 68 70" fill="none" xmlns="http://www.w3.org/2000/svg">
<path d="M63.8401 42.2001V67.8001C63.8401 68.6801 63.1201 69.4001 62.2401 69.4001H48.6401V40.6001H62.2401C63.1201 40.6001 63.8401 41.3201 63.8401 42.2001ZM22.2401 53.0801V67.8001C22.2401 68.6801 22.9601 69.4001 23.8401 69.4001H37.4401V40.6001H31.7601L22.2401 53.0801ZM40.6401 69.4001H45.4401V40.6001H40.6401V69.4001ZM34.5601 29.0801L30.7201 26.2001C30.4001 25.9601 30.0801 25.8801 29.7601 25.8801C29.6801 25.8801 29.6001 25.8801 29.5201 25.8801C29.1201 25.9601 28.7201 26.1201 28.4801 26.5201L16.8001 41.7201L14.8801 44.2801L12.0001 48.1201L1.28011 62.0401C0.720105 62.7601 0.880105 63.7201 1.6001 64.2801L5.44011 67.2401C5.76011 67.4801 6.24011 67.6401 6.64011 67.5601C7.04011 67.4801 7.44011 67.3201 7.68011 66.9201L34.8801 31.3201C35.3601 30.6801 35.2801 29.6401 34.5601 29.0801ZM10.8001 39.1601L13.3601 41.0801L15.2801 38.5201C16.3201 37.0801 16.0801 35.0801 14.6401 34.0401C14.0801 33.6401 13.3601 33.4001 12.7201 33.4001C11.7601 33.4001 10.8001 33.8001 10.1601 34.6801C9.68011 35.3201 9.44011 36.2001 9.52011 37.0801C9.60011 37.9601 10.0801 38.6001 10.8001 39.1601ZM4.96011 46.7601C6.40011 47.8001 8.40011 47.5601 9.44011 46.1201L11.3601 43.5601L8.80011 41.6401C8.24011 41.1601 7.52011 41.0001 6.88011 41.0001C5.92011 41.0001 4.96011 41.4001 4.32011 42.2801C3.76011 43.0001 3.60011 43.8001 3.68011 44.6801C3.84011 45.4801 4.24011 46.2001 4.96011 46.7601ZM48.6401 16.9201C50.8001 15.1601 51.6801 12.9201 51.0401 10.9201C50.5601 9.40009 49.2801 8.2801 48.0001 8.2001C47.9201 8.2001 47.8401 8.2001 47.7601 8.2001C46.4001 8.2001 45.1201 8.8401 44.3201 9.9601C44.0001 10.3601 43.5201 10.6001 43.0401 10.6001C42.5601 10.6001 42.0801 10.3601 41.7601 9.9601C40.9601 8.8401 39.6801 8.2001 38.3201 8.2001C38.2401 8.2001 38.1601 8.2001 38.0801 8.2001C36.8001 8.2801 35.5201 9.40009 35.0401 10.9201C34.4001 12.9201 35.2801 15.1601 37.4401 16.9201L43.0401 21.3201L48.6401 16.9201ZM65.4401 11.8001H60.6401C59.7601 11.8001 59.0401 12.5201 59.0401 13.4001C59.0401 14.2801 59.7601 15.0001 60.6401 15.0001H65.4401C66.3201 15.0001 67.0401 14.2801 67.0401 13.4001C67.0401 12.5201 66.3201 11.8001 65.4401 11.8001ZM59.0401 7.0001C59.4401 7.0001 59.8401 6.8401 60.1601 6.5201L63.3601 3.3201C64.0001 2.6801 64.0001 1.7201 63.3601 1.0801C62.7201 0.440098 61.7601 0.440098 61.1201 1.0801L57.9201 4.2801C57.2801 4.9201 57.2801 5.8801 57.9201 6.5201C58.2401 6.8401 58.6401 7.0001 59.0401 7.0001ZM60.1601 20.2801C59.5201 19.6401 58.5601 19.6401 57.9201 20.2801C57.2801 20.9201 57.2801 21.8801 57.9201 22.5201L61.1201 25.7201C61.4401 26.0401 61.8401 26.2001 62.2401 26.2001C62.6401 26.2001 63.0401 26.0401 63.3601 25.7201C64.0001 25.0801 64.0001 24.1201 63.3601 23.4801L60.1601 20.2801ZM20.6401 15.0001H25.4401C26.3201 15.0001 27.0401 14.2801 27.0401 13.4001C27.0401 12.5201 26.3201 11.8001 25.4401 11.8001H20.6401C19.7601 11.8001 19.0401 12.5201 19.0401 13.4001C19.0401 14.2801 19.7601 15.0001 20.6401 15.0001ZM25.9201 6.5201C26.2401 6.8401 26.6401 7.0001 27.0401 7.0001C27.4401 7.0001 27.8401 6.8401 28.1601 6.5201C28.8001 5.8801 28.8001 4.9201 28.1601 4.2801L24.9601 1.0801C24.3201 0.440098 23.3601 0.440098 22.7201 1.0801C22.0801 1.7201 22.0801 2.6801 22.7201 3.3201L25.9201 6.5201Z" fill="#186EDF"/>
</svg>
