<svg width="62" height="76" viewBox="0 0 62 76" fill="none" xmlns="http://www.w3.org/2000/svg">
<path d="M30.9902 45.5974C33.9201 45.5974 36.2935 47.9705 36.2935 50.9004C36.2935 53.3176 34.6673 55.3685 32.4551 55.9984V56.6137C32.4551 57.4194 31.8107 58.0787 30.9902 58.0787C30.1844 58.0787 29.5253 57.4194 29.5253 56.6137V55.9984C27.3131 55.3538 25.6873 53.3176 25.6873 50.9004C25.6873 50.0948 26.3464 49.4355 27.1522 49.4355C27.9576 49.4355 28.6171 50.0948 28.6171 50.9004C28.6171 52.2042 29.6865 53.2736 30.9902 53.2736C32.3089 53.2736 33.3636 52.2042 33.3636 50.9004C33.3636 49.582 32.3089 48.5273 30.9902 48.5273C28.075 48.5273 25.6873 46.1394 25.6873 43.2095C25.6873 40.807 27.3131 38.7561 29.5253 38.1115V37.4962C29.5253 36.6905 30.1844 36.0312 30.9902 36.0312C31.8107 36.0312 32.4551 36.6905 32.4551 37.4962V38.1115C34.6673 38.7561 36.2935 40.7923 36.2935 43.2095C36.2935 44.0298 35.6487 44.6744 34.8286 44.6744C34.0228 44.6744 33.3636 44.0298 33.3636 43.2095C33.3636 41.9057 32.3089 40.8363 30.9902 40.8363C29.6865 40.8363 28.6171 41.9057 28.6171 43.2095C28.6171 44.528 29.6865 45.5974 30.9902 45.5974Z" fill="#186EDF"/>
<path d="M61.2171 23.1126H44.4461C40.5963 23.1126 37.4632 19.9917 37.4632 16.1418V0.378746C37.1055 0.339099 12.041 0.354511 11.6811 0.354511C5.62108 0.354511 0.714844 5.26075 0.714844 11.3207V64.6703C0.714844 70.7303 5.6212 75.6486 11.6811 75.6486H50.3117C56.3594 75.6486 61.2779 70.7303 61.2779 64.6703C61.2779 63.9412 61.3164 23.8318 61.2171 23.1126ZM9.26555 10.2469H31.4441C32.1154 10.2469 32.6586 10.7906 32.6586 11.4613C32.6586 12.132 32.1154 12.6758 31.4441 12.6758H9.26555C8.59426 12.6758 8.05108 12.132 8.05108 11.4613C8.0512 10.7906 8.59437 10.2469 9.26555 10.2469ZM9.26555 19.186C8.59426 19.186 8.05108 18.6423 8.05108 17.9716C8.05108 17.3009 8.59426 16.7571 9.26555 16.7571H31.4441C32.1154 16.7571 32.6586 17.3009 32.6586 17.9716C32.6586 18.6423 32.1154 19.186 31.4441 19.186H9.26555ZM31.0024 64.6217C21.287 64.6217 13.4297 56.7522 13.4297 47.049C13.4297 37.3579 21.287 29.4884 31.0024 29.4884C40.6934 29.4884 48.5628 37.3579 48.5628 47.049C48.563 56.7522 40.6936 64.6217 31.0024 64.6217Z" fill="#186EDF"/>
<path d="M44.4413 20.6897H60.7192C60.1509 19.0086 59.1712 17.4728 57.8652 16.2271L44.3809 3.37178C43.0991 2.16249 41.563 1.27955 39.894 0.795898V16.1425C39.894 18.6459 41.9259 20.6897 44.4413 20.6897Z" fill="#186EDF"/>
</svg>
