<?xml version="1.0" encoding="iso-8859-1"?>
<!-- Generator: Adobe Illustrator 24.1.0, SVG Export Plug-In . SVG Version: 6.00 Build 0)  -->
<svg version="1.1" id="Layer_1" xmlns="http://www.w3.org/2000/svg" xmlns:xlink="http://www.w3.org/1999/xlink" x="0px" y="0px"
	 viewBox="0 0 100 100" style="enable-background:new 0 0 100 100;" xml:space="preserve">
<g>
	<g>
		<path style="opacity:0.5653;fill:#FFFFFF;" d="M10.47,68.597l-1.689-0.983v-1.968l0.019-0.009l1.67-0.974l1.689,0.983v1.968
			l-0.017,0.009L10.47,68.597z M8.852,67.572l1.617,0.943l1.619-0.943v-1.884l-1.619-0.943l-1.617,0.943V67.572z"/>
	</g>
	<g>
		<path style="opacity:0.7779;fill:#FFFFFF;" d="M10.47,78.228l-3.342-1.946v-3.894l0.019-0.011l3.323-1.937l3.342,1.948v3.894
			l-0.017,0.009L10.47,78.228z M7.199,76.24l3.27,1.906l3.272-1.906v-3.812l-3.272-1.906l-3.27,1.906V76.24z"/>
	</g>
	<g>
		<path style="opacity:0.6984;fill:#FFFFFF;" d="M23.697,70.523l-3.342-1.946v-3.894l0.017-0.009l3.325-1.937l3.342,1.946v3.894
			l-0.017,0.011L23.697,70.523z M20.425,68.535l3.272,1.906l3.272-1.906v-3.812l-3.272-1.904l-3.272,1.904V68.535z"/>
	</g>
	<g>
		<path style="opacity:0.8157;fill:#FFFFFF;" d="M23.697,89.787l-0.017-0.011l-6.631-3.863v-7.746l0.017-0.011l6.631-3.863
			l0.017,0.011l6.631,3.863v7.746l-0.017,0.009L23.697,89.787z M17.119,85.872l6.578,3.833l6.578-3.833v-7.663l-6.578-3.832
			l-6.578,3.832V85.872z"/>
	</g>
	<g>
		<polygon style="opacity:0.8677;fill:#FFFFFF;" points="6.164,100 10.47,97.491 14.776,100 14.917,100 10.47,97.409 6.023,100 		
			"/>
	</g>
	<g>
		<path style="opacity:0.8834;fill:#FFFFFF;" d="M10.47,97.491l-6.648-3.872v-7.747l0.017-0.009L10.47,82l6.649,3.872v7.747
			L17.1,93.628L10.47,97.491z M3.891,93.577l6.578,3.832l6.578-3.832v-7.664l-6.578-3.832l-6.578,3.832V93.577z"/>
	</g>
	<g>
		<polygon style="opacity:0.5245;fill:#FFFFFF;" points="21.531,100 20.425,99.356 20.425,95.545 23.697,93.639 26.969,95.545 
			26.969,99.356 25.863,100 26.004,100 27.039,99.397 27.039,95.503 23.697,93.557 20.355,95.503 20.355,99.397 21.389,100 		"/>
	</g>
	<g>
		<polygon style="opacity:0.7529;fill:#FFFFFF;" points="6.164,100 10.47,97.491 14.776,100 14.917,100 10.47,97.409 6.023,100 		
			"/>
	</g>
	<g>
		<path style="opacity:0.8384;fill:#FFFFFF;" d="M39.924,60.114l-3.342-1.948v-3.893l0.017-0.01l3.325-1.937l3.342,1.947v3.893
			l-0.019,0.011L39.924,60.114z M36.652,58.125l3.272,1.907l3.27-1.907v-3.811l-3.27-1.906l-3.272,1.906V58.125z"/>
	</g>
	<g>
		<path style="opacity:0.6654;fill:#FFFFFF;" d="M23.697,78.228l-3.342-1.946v-3.894l0.017-0.011l3.325-1.937l3.342,1.948v3.894
			l-0.017,0.009L23.697,78.228z M20.425,76.24l3.272,1.906l3.272-1.906v-3.812l-3.272-1.906l-3.272,1.906V76.24z"/>
	</g>
	<g>
		<path style="opacity:0.6262;fill:#FFFFFF;" d="M10.47,68.597l-1.689-0.983v-1.968l0.019-0.009l1.67-0.974l1.689,0.983v1.968
			l-0.017,0.009L10.47,68.597z M8.852,67.572l1.617,0.943l1.619-0.943v-1.884l-1.619-0.943l-1.617,0.943V67.572z"/>
	</g>
	<g>
		<path style="opacity:0.5193;fill:#FFFFFF;" d="M10.47,84.008l-1.689-0.985v-1.966l0.019-0.011l1.67-0.972l1.689,0.983v1.966
			l-0.017,0.011L10.47,84.008z M8.852,82.983l1.617,0.943l1.619-0.943v-1.886l-1.619-0.943l-1.617,0.943V82.983z"/>
	</g>
	<g>
		<path style="opacity:0.9905;fill:#FFFFFF;" d="M36.924,89.787l-0.019-0.011l-6.631-3.863v-7.746l0.017-0.011l6.632-3.863
			l0.017,0.011l6.631,3.863v7.746l-0.017,0.009L36.924,89.787z M30.345,85.872l6.579,3.833l6.578-3.833v-7.663l-6.578-3.832
			l-6.579,3.832V85.872z"/>
	</g>
	<g>
		<path style="opacity:0.517;fill:#FFFFFF;" d="M36.924,99.419l-1.689-0.985v-1.966l1.689-0.985l1.687,0.985v1.966L36.924,99.419z
			 M35.305,98.394l1.619,0.943l1.617-0.943v-1.886l-1.617-0.943l-1.619,0.943V98.394z"/>
	</g>
	<g>
		<polygon style="opacity:0.6479;fill:#FFFFFF;" points="30.345,100 30.345,93.619 36.924,89.787 43.502,93.619 43.502,100 
			43.572,100 43.572,93.577 36.941,89.714 36.924,89.705 30.292,93.568 30.275,93.577 30.275,100 		"/>
	</g>
	<g>
		<path style="opacity:0.9857;fill:#FFFFFF;" d="M50.15,55.114l-3.342-1.948v-3.893l0.019-0.01l3.323-1.937l3.342,1.947v3.893
			l-0.017,0.011L50.15,55.114z M46.878,53.125l3.272,1.907l3.272-1.907v-3.811l-3.272-1.906l-3.272,1.906V53.125z"/>
	</g>
	<g>
		<path style="opacity:0.7696;fill:#FFFFFF;" d="M50.15,89.787l-0.017-0.011l-6.631-3.863v-7.746l0.017-0.011l6.631-3.863
			l0.019,0.011l6.631,3.863v7.746l-0.019,0.009L50.15,89.787z M43.572,85.872l6.578,3.833l6.578-3.833v-7.663l-6.578-3.832
			l-6.578,3.832V85.872z"/>
	</g>
	<g>
		<polygon style="opacity:0.8062;fill:#FFFFFF;" points="28.144,100 23.732,97.43 23.732,82.06 36.924,74.376 50.116,82.06 
			50.116,97.43 45.704,100 45.844,100 50.169,97.482 50.186,97.471 50.186,82.02 36.941,74.305 36.924,74.294 23.68,82.009 
			23.661,82.02 23.661,97.471 28.003,100 		"/>
	</g>
	<g>
		<path style="opacity:0.9977;fill:#FFFFFF;" d="M50.15,99.419l-1.689-0.985v-1.966l1.689-0.985l1.689,0.985v1.966L50.15,99.419z
			 M48.533,98.394l1.617,0.943l1.619-0.943v-1.886l-1.619-0.943l-1.617,0.943V98.394z"/>
	</g>
	<g>
		<polygon style="opacity:0.6323;fill:#FFFFFF;" points="17.119,100 17.119,93.619 23.697,89.787 30.275,93.619 30.275,100 
			30.345,100 30.345,93.577 23.714,89.714 23.697,89.705 17.066,93.568 17.049,93.577 17.049,100 		"/>
	</g>
	<g>
		<path style="opacity:0.5774;fill:#FFFFFF;" d="M23.697,99.419l-1.689-0.985v-1.966l1.689-0.985l1.689,0.985v1.966L23.697,99.419z
			 M22.078,98.394l1.619,0.943l1.619-0.943v-1.886l-1.619-0.943l-1.619,0.943V98.394z"/>
	</g>
	<g>
		<polygon style="opacity:0.6004;fill:#FFFFFF;" points="17.119,100 17.119,93.619 23.697,89.787 30.275,93.619 30.275,100 
			30.345,100 30.345,93.577 23.714,89.714 23.697,89.705 17.066,93.568 17.049,93.577 17.049,100 		"/>
	</g>
	<g>
		<polygon style="opacity:0.6006;fill:#FFFFFF;" points="32.618,100 36.924,97.491 41.229,100 41.37,100 36.924,97.409 32.477,100 
					"/>
	</g>
	<g>
		<path style="opacity:0.6198;fill:#FFFFFF;" d="M39.924,58.187l-1.689-0.984v-1.967l0.017-0.01l1.672-0.974l1.687,0.984v1.967
			l-0.017,0.011L39.924,58.187z M38.305,57.162l1.619,0.943l1.617-0.943v-1.885l-1.617-0.943l-1.619,0.943V57.162z"/>
	</g>
	<g>
		<path style="opacity:0.9164;fill:#FFFFFF;" d="M36.924,68.597l-1.689-0.983v-1.968l0.017-0.009l1.672-0.974l1.687,0.983v1.968
			l-0.017,0.009L36.924,68.597z M35.305,67.572l1.619,0.943l1.617-0.943v-1.884l-1.617-0.943l-1.619,0.943V67.572z"/>
	</g>
	<g>
		<path style="opacity:0.5577;fill:#FFFFFF;" d="M36.924,89.787l-0.019-0.011l-6.631-3.863v-7.746l0.017-0.011l6.632-3.863
			l0.017,0.011l6.631,3.863v7.746l-0.017,0.009L36.924,89.787z M30.345,85.872l6.579,3.833l6.578-3.833v-7.663l-6.578-3.832
			l-6.579,3.832V85.872z"/>
	</g>
	<g>
		<path style="opacity:0.6643;fill:#FFFFFF;" d="M63.377,85.934l-3.342-1.946v-3.894l0.017-0.011l3.325-1.937l3.342,1.948v3.894
			l-0.017,0.009L63.377,85.934z M60.105,83.946l3.272,1.906l3.272-1.906v-3.811l-3.272-1.906l-3.272,1.906V83.946z"/>
	</g>
	<g>
		<path style="opacity:0.9482;fill:#FFFFFF;" d="M50.15,97.491l-6.648-3.872v-7.747l0.017-0.009L50.15,82l6.649,3.872v7.747
			l-0.019,0.009L50.15,97.491z M43.572,93.577l6.578,3.832l6.578-3.832v-7.664l-6.578-3.832l-6.578,3.832V93.577z"/>
	</g>
	<g>
		<path style="opacity:0.8287;fill:#FFFFFF;" d="M63.377,89.787l-0.017-0.011L50.116,82.06V66.609l0.017-0.009l13.244-7.716
			l0.017,0.011l13.244,7.715V82.06l-0.017,0.011L63.377,89.787z M50.186,82.02l13.192,7.685l13.192-7.685V66.651l-13.192-7.685
			l-13.192,7.685V82.02z"/>
	</g>
	<g>
		<path style="opacity:0.9627;fill:#FFFFFF;" d="M50.15,68.597l-1.689-0.983v-1.968l0.019-0.009l1.67-0.974l1.689,0.983v1.968
			l-0.017,0.009L50.15,68.597z M48.533,67.572l1.617,0.943l1.619-0.943v-1.884l-1.619-0.943l-1.617,0.943V67.572z"/>
	</g>
	<g>
		<path style="opacity:0.6877;fill:#FFFFFF;" d="M76.605,74.376l-0.019-0.011l-6.631-3.863v-7.746l0.017-0.011l6.632-3.863
			l0.017,0.011l6.631,3.863v7.746l-0.017,0.011L76.605,74.376z M70.025,70.462l6.58,3.832l6.578-3.832v-7.665l-6.578-3.832
			l-6.58,3.832V70.462z"/>
	</g>
	<g>
		<path style="opacity:0.5544;fill:#FFFFFF;" d="M63.377,93.639l-3.342-1.948v-3.892l0.017-0.011l3.325-1.937l3.342,1.948v3.892
			l-0.017,0.011L63.377,93.639z M60.105,91.651l3.272,1.906l3.272-1.906V87.84l-3.272-1.906l-3.272,1.906V91.651z"/>
	</g>
	<g>
		<path style="opacity:0.8016;fill:#FFFFFF;" d="M63.377,82.082l-0.017-0.011l-6.632-3.863v-7.746l0.019-0.011l6.631-3.863
			l0.017,0.011l6.631,3.863v7.746l-0.017,0.011L63.377,82.082z M56.799,78.168L63.377,82l6.578-3.832v-7.665l-6.578-3.832
			l-6.578,3.832V78.168z"/>
	</g>
	<g>
		<polygon style="opacity:0.5003;fill:#FFFFFF;" points="59.071,100 63.377,97.491 67.684,100 67.825,100 63.377,97.409 58.93,100 
					"/>
	</g>
	<g>
		<polygon style="opacity:0.7569;fill:#FFFFFF;" points="43.572,100 43.572,93.619 50.15,89.787 56.728,93.619 56.728,100 
			56.799,100 56.799,93.577 50.169,89.714 50.15,89.705 43.519,93.568 43.502,93.577 43.502,100 		"/>
	</g>
	<g>
		<path style="opacity:0.9339;fill:#FFFFFF;" d="M63.377,97.491l-6.649-3.872v-7.747l0.019-0.009L63.377,82l6.648,3.872v7.747
			l-0.017,0.009L63.377,97.491z M56.799,93.577l6.578,3.832l6.578-3.832v-7.664l-6.578-3.832l-6.578,3.832V93.577z"/>
	</g>
	<g>
		<polygon style="opacity:0.6722;fill:#FFFFFF;" points="74.437,100 73.333,99.356 73.333,95.545 76.605,93.639 79.875,95.545 
			79.875,99.356 78.771,100 78.911,100 79.946,99.397 79.946,95.503 76.605,93.557 73.261,95.503 73.261,99.397 74.297,100 		"/>
	</g>
	<g>
		<polygon style="opacity:0.5645;fill:#FFFFFF;" points="59.071,100 63.377,97.491 67.684,100 67.825,100 63.377,97.409 58.93,100 
					"/>
	</g>
	<g>
		<path style="opacity:0.7115;fill:#FFFFFF;" d="M63.377,53.187l-1.689-0.984v-1.967l0.017-0.01l1.672-0.974l1.689,0.984v1.967
			l-0.019,0.011L63.377,53.187z M61.759,52.162l1.619,0.943l1.617-0.943v-1.885l-1.617-0.943l-1.619,0.943V52.162z"/>
	</g>
	<g>
		<path style="opacity:0.6307;fill:#FFFFFF;" d="M63.377,58.966l-0.017-0.011l-6.632-3.863v-7.746l0.019-0.01l6.631-3.863
			l0.017,0.01l6.631,3.863v7.746l-0.017,0.011L63.377,58.966z M56.799,55.052l6.578,3.832l6.578-3.832v-7.664l-6.578-3.832
			l-6.578,3.832V55.052z"/>
	</g>
	<g>
		<path style="opacity:0.9278;fill:#FFFFFF;" d="M89.831,58.966l-0.017-0.011l-6.631-3.863v-7.746l0.017-0.01l6.631-3.863
			l6.649,3.873v7.746l-0.019,0.011L89.831,58.966z M83.253,55.052l6.578,3.832l6.578-3.832v-7.664l-6.578-3.832l-6.578,3.832V55.052
			z"/>
	</g>
	<g>
		<path style="opacity:0.6392;fill:#FFFFFF;" d="M89.831,74.376l-6.648-3.874v-7.746l0.017-0.011l6.631-3.863l6.649,3.874v7.746
			l-0.019,0.011L89.831,74.376z M83.253,70.462l6.578,3.832l6.578-3.832v-7.665l-6.578-3.832l-6.578,3.832V70.462z"/>
	</g>
	<g>
		<path style="opacity:0.8937;fill:#FFFFFF;" d="M76.605,89.787l-0.019-0.011L63.342,82.06V66.609L63.36,66.6l13.244-7.716
			l0.017,0.011l13.245,7.715V82.06l-0.017,0.011L76.605,89.787z M63.413,82.02l13.192,7.685l13.192-7.685V66.651l-13.192-7.685
			l-13.192,7.685V82.02z"/>
	</g>
	<g>
		<path style="opacity:0.6526;fill:#FFFFFF;" d="M63.377,68.597l-1.689-0.983v-1.968l0.017-0.009l1.672-0.974l1.689,0.983v1.968
			l-0.019,0.009L63.377,68.597z M61.759,67.572l1.619,0.943l1.617-0.943v-1.884l-1.617-0.943l-1.619,0.943V67.572z"/>
	</g>
	<g>
		<path style="opacity:0.6213;fill:#FFFFFF;" d="M63.377,84.008l-1.689-0.985v-1.966l0.017-0.011l1.672-0.972l1.689,0.983v1.966
			l-0.019,0.011L63.377,84.008z M61.759,82.983l1.619,0.943l1.617-0.943v-1.886l-1.617-0.943l-1.619,0.943V82.983z"/>
	</g>
	<g>
		<path style="opacity:0.9916;fill:#FFFFFF;" d="M89.831,99.419l-1.689-0.985v-1.966l1.689-0.985l1.689,0.985v1.966L89.831,99.419z
			 M88.213,98.394l1.617,0.943l1.619-0.943v-1.886l-1.619-0.943l-1.617,0.943V98.394z"/>
	</g>
	<g>
		<path style="opacity:0.5206;fill:#FFFFFF;" d="M76.605,68.597l-1.689-0.983v-1.968l0.017-0.009l1.672-0.974l1.687,0.983v1.968
			l-0.017,0.009L76.605,68.597z M74.986,67.572l1.619,0.943l1.617-0.943v-1.884l-1.617-0.943l-1.619,0.943V67.572z"/>
	</g>
	<g>
		<path style="opacity:0.5092;fill:#FFFFFF;" d="M76.605,74.376l-0.019-0.011l-6.631-3.863v-7.746l0.017-0.011l6.632-3.863
			l0.017,0.011l6.631,3.863v7.746l-0.017,0.011L76.605,74.376z M70.025,70.462l6.58,3.832l6.578-3.832v-7.665l-6.578-3.832
			l-6.58,3.832V70.462z"/>
	</g>
	<g>
		<polygon style="opacity:0.6455;fill:#FFFFFF;" points="100,87.923 96.48,85.872 96.48,78.208 100,76.157 100,76.076 
			96.427,78.157 96.409,78.168 96.409,85.914 100,88.005 		"/>
	</g>
	<g>
		<path style="opacity:0.5075;fill:#FFFFFF;" d="M89.831,97.491l-6.648-3.872v-7.747l0.017-0.009L89.831,82l6.649,3.872v7.747
			l-0.019,0.009L89.831,97.491z M83.253,93.577l6.578,3.832l6.578-3.832v-7.664l-6.578-3.832l-6.578,3.832V93.577z"/>
	</g>
	<g>
		<polygon style="opacity:0.6536;fill:#FFFFFF;" points="100,84.07 99.786,83.946 99.786,80.134 100,80.01 100,79.928 
			99.733,80.083 99.716,80.094 99.716,83.988 100,84.152 		"/>
	</g>
	<g>
		<polygon style="opacity:0.716;fill:#FFFFFF;" points="85.524,100 89.831,97.491 94.137,100 94.278,100 89.831,97.409 85.383,100 
					"/>
	</g>
	<g>
		<polygon style="opacity:0.6878;fill:#FFFFFF;" points="70.025,100 70.025,93.619 76.605,89.787 83.183,93.619 83.183,100 
			83.253,100 83.253,93.577 76.622,89.714 76.605,89.705 69.974,93.568 69.955,93.577 69.955,100 		"/>
	</g>
	<g>
		<path style="opacity:0.8538;fill:#FFFFFF;" d="M89.831,97.491l-6.648-3.872v-7.747l0.017-0.009L89.831,82l6.649,3.872v7.747
			l-0.019,0.009L89.831,97.491z M83.253,93.577l6.578,3.832l6.578-3.832v-7.664l-6.578-3.832l-6.578,3.832V93.577z"/>
	</g>
	<g>
		<polygon style="opacity:0.811;fill:#FFFFFF;" points="100,87.923 89.866,82.02 89.866,66.651 100,60.747 100,60.665 89.814,66.6 
			89.796,66.609 89.796,82.06 100,88.005 		"/>
	</g>
	<g>
		<polygon style="opacity:0.6353;fill:#FFFFFF;" points="94.278,100 89.866,97.43 89.866,82.06 100,76.157 100,76.076 
			89.814,82.009 89.796,82.02 89.796,97.471 94.137,100 		"/>
	</g>
	<g>
		<polygon style="opacity:0.9972;fill:#FFFFFF;" points="100,80.218 96.48,78.168 96.48,70.503 100,68.453 100,68.371 
			96.427,70.452 96.409,70.462 96.409,78.208 100,80.3 		"/>
	</g>
	<g>
		<polygon style="opacity:0.9775;fill:#FFFFFF;" points="98.752,100 100,99.273 100,99.19 98.611,100 		"/>
	</g>
	<g>
		<polygon style="opacity:0.6343;fill:#FFFFFF;" points="98.752,100 100,99.273 100,99.19 98.611,100 		"/>
	</g>
	<g>
		<polygon style="opacity:0.8543;fill:#FFFFFF;" points="100,57.103 96.48,55.052 96.48,47.388 100,45.337 100,45.255 
			96.427,47.336 96.409,47.346 96.409,55.092 100,57.184 		"/>
	</g>
	<g>
		<polygon style="opacity:0.6795;fill:#FFFFFF;" points="96.48,100 96.48,93.619 100,91.567 100,91.485 96.427,93.568 
			96.409,93.577 96.409,100 		"/>
	</g>
	<path style="opacity:0.8144;fill:#FFFFFF;" d="M9.238,67.594c0,0.234-0.189,0.425-0.422,0.425s-0.422-0.191-0.422-0.425
		c0-0.236,0.189-0.427,0.422-0.427S9.238,67.358,9.238,67.594z"/>
	<path style="opacity:0.728;fill:#FFFFFF;" d="M10.891,68.557c0,0.234-0.188,0.425-0.422,0.425c-0.233,0-0.422-0.191-0.422-0.425
		c0-0.236,0.189-0.426,0.422-0.426C10.704,68.13,10.891,68.321,10.891,68.557z"/>
	<path style="opacity:0.7587;fill:#FFFFFF;" d="M12.546,67.594c0,0.234-0.189,0.425-0.423,0.425c-0.233,0-0.422-0.191-0.422-0.425
		c0-0.236,0.189-0.427,0.422-0.427C12.357,67.167,12.546,67.358,12.546,67.594z"/>
	<path style="opacity:0.7801;fill:#FFFFFF;" d="M4.278,85.893c0,0.234-0.189,0.425-0.422,0.425c-0.233,0-0.422-0.191-0.422-0.425
		c0-0.236,0.188-0.426,0.422-0.426C4.089,85.467,4.278,85.658,4.278,85.893z"/>
	<path style="opacity:0.9423;fill:#FFFFFF;" d="M10.891,78.188c0,0.234-0.188,0.425-0.422,0.425c-0.233,0-0.422-0.191-0.422-0.425
		c0-0.236,0.189-0.427,0.422-0.427C10.704,77.762,10.891,77.952,10.891,78.188z"/>
	<path style="opacity:0.8348;fill:#FFFFFF;" d="M14.199,72.409c0,0.236-0.189,0.427-0.422,0.427c-0.234,0-0.423-0.191-0.423-0.427
		c0-0.234,0.189-0.426,0.423-0.426C14.01,71.982,14.199,72.175,14.199,72.409z"/>
	<path style="opacity:0.6404;fill:#FFFFFF;" d="M7.585,72.409c0,0.236-0.189,0.427-0.422,0.427c-0.233,0-0.422-0.191-0.422-0.427
		c0-0.234,0.189-0.426,0.422-0.426C7.396,71.982,7.585,72.175,7.585,72.409z"/>
	<path style="opacity:0.8945;fill:#FFFFFF;" d="M20.813,68.557c0,0.234-0.189,0.425-0.422,0.425c-0.234,0-0.423-0.191-0.423-0.425
		c0-0.236,0.189-0.426,0.423-0.426C20.623,68.13,20.813,68.321,20.813,68.557z"/>
	<path style="opacity:0.8456;fill:#FFFFFF;" d="M24.119,70.483c0,0.236-0.189,0.425-0.422,0.425s-0.422-0.189-0.422-0.425
		c0-0.236,0.189-0.426,0.422-0.426S24.119,70.247,24.119,70.483z"/>
	<path style="opacity:0.9902;fill:#FFFFFF;" d="M17.505,85.893c0,0.234-0.189,0.425-0.422,0.425s-0.422-0.191-0.422-0.425
		c0-0.236,0.189-0.426,0.422-0.426S17.505,85.658,17.505,85.893z"/>
	<path style="opacity:0.7274;fill:#FFFFFF;" d="M24.119,97.451c0,0.234-0.189,0.425-0.422,0.425s-0.422-0.191-0.422-0.425
		c0-0.236,0.189-0.426,0.422-0.426S24.119,97.215,24.119,97.451z"/>
	<path style="opacity:0.5371;fill:#FFFFFF;" d="M20.813,99.377c0,0.236-0.189,0.427-0.422,0.427c-0.234,0-0.423-0.191-0.423-0.427
		c0-0.236,0.189-0.426,0.423-0.426C20.623,98.95,20.813,99.141,20.813,99.377z"/>
	<path style="opacity:0.5344;fill:#FFFFFF;" d="M27.426,76.261c0,0.236-0.189,0.427-0.423,0.427c-0.233,0-0.422-0.191-0.422-0.427
		c0-0.234,0.189-0.425,0.422-0.425C27.237,75.836,27.426,76.026,27.426,76.261z"/>
	<path style="opacity:0.9922;fill:#FFFFFF;" d="M20.813,72.409c0,0.236-0.189,0.427-0.422,0.427c-0.234,0-0.423-0.191-0.423-0.427
		c0-0.234,0.189-0.426,0.423-0.426C20.623,71.982,20.813,72.175,20.813,72.409z"/>
	<path style="opacity:0.6301;fill:#FFFFFF;" d="M9.238,67.594c0,0.234-0.189,0.425-0.422,0.425s-0.422-0.191-0.422-0.425
		c0-0.236,0.189-0.427,0.422-0.427S9.238,67.358,9.238,67.594z"/>
	<path style="opacity:0.8077;fill:#FFFFFF;" d="M12.546,81.077c0,0.236-0.189,0.427-0.423,0.427c-0.233,0-0.422-0.191-0.422-0.427
		c0-0.236,0.189-0.426,0.422-0.426C12.357,80.651,12.546,80.841,12.546,81.077z"/>
	<path style="opacity:0.7663;fill:#FFFFFF;" d="M30.732,85.893c0,0.234-0.189,0.425-0.422,0.425c-0.234,0-0.422-0.191-0.422-0.425
		c0-0.236,0.188-0.426,0.422-0.426C30.543,85.467,30.732,85.658,30.732,85.893z"/>
	<path style="opacity:0.5432;fill:#FFFFFF;" d="M37.346,89.745c0,0.236-0.189,0.426-0.422,0.426c-0.234,0-0.423-0.191-0.423-0.426
		c0-0.236,0.189-0.427,0.423-0.427C37.157,89.319,37.346,89.51,37.346,89.745z"/>
	<path style="opacity:0.8535;fill:#FFFFFF;" d="M43.96,85.893c0,0.234-0.189,0.425-0.423,0.425c-0.233,0-0.422-0.191-0.422-0.425
		c0-0.236,0.189-0.426,0.422-0.426C43.771,85.467,43.96,85.658,43.96,85.893z"/>
	<path style="opacity:0.5589;fill:#FFFFFF;" d="M43.96,78.188c0,0.234-0.189,0.425-0.423,0.425c-0.233,0-0.422-0.191-0.422-0.425
		c0-0.236,0.189-0.427,0.422-0.427C43.771,77.762,43.96,77.952,43.96,78.188z"/>
	<path style="opacity:0.8499;fill:#FFFFFF;" d="M37.346,74.335c0,0.236-0.189,0.427-0.422,0.427c-0.234,0-0.423-0.191-0.423-0.427
		c0-0.234,0.189-0.425,0.423-0.425C37.157,73.91,37.346,74.1,37.346,74.335z"/>
	<path style="opacity:0.6091;fill:#FFFFFF;" d="M35.693,96.488c0,0.234-0.189,0.425-0.423,0.425c-0.233,0-0.422-0.191-0.422-0.425
		c0-0.236,0.189-0.427,0.422-0.427C35.504,96.061,35.693,96.252,35.693,96.488z"/>
	<path style="opacity:0.5784;fill:#FFFFFF;" d="M50.572,47.367c0,0.235-0.188,0.426-0.422,0.426c-0.232,0-0.422-0.191-0.422-0.426
		c0-0.235,0.189-0.426,0.422-0.426C50.384,46.942,50.572,47.132,50.572,47.367z"/>
	<path style="opacity:0.7656;fill:#FFFFFF;" d="M50.572,89.745c0,0.236-0.188,0.426-0.422,0.426c-0.232,0-0.422-0.191-0.422-0.426
		c0-0.236,0.189-0.427,0.422-0.427C50.384,89.319,50.572,89.51,50.572,89.745z"/>
	<path style="opacity:0.5656;fill:#FFFFFF;" d="M24.119,97.451c0,0.234-0.189,0.425-0.422,0.425s-0.422-0.191-0.422-0.425
		c0-0.236,0.189-0.426,0.422-0.426S24.119,97.215,24.119,97.451z"/>
	<path style="opacity:0.9124;fill:#FFFFFF;" d="M48.919,98.414c0,0.236-0.189,0.426-0.422,0.426s-0.422-0.191-0.422-0.426
		c0-0.236,0.189-0.427,0.422-0.427S48.919,98.178,48.919,98.414z"/>
	<path style="opacity:0.9768;fill:#FFFFFF;" d="M22.466,98.414c0,0.236-0.189,0.426-0.422,0.426c-0.233,0-0.422-0.191-0.422-0.426
		c0-0.236,0.189-0.427,0.422-0.427C22.276,97.987,22.466,98.178,22.466,98.414z"/>
	<path style="opacity:0.9016;fill:#FFFFFF;" d="M38.693,57.183c0,0.235-0.189,0.426-0.423,0.426c-0.233,0-0.422-0.191-0.422-0.426
		c0-0.235,0.189-0.426,0.422-0.426C38.504,56.757,38.693,56.948,38.693,57.183z"/>
	<path style="opacity:0.6844;fill:#FFFFFF;" d="M37.346,64.703c0,0.236-0.189,0.426-0.422,0.426c-0.234,0-0.423-0.191-0.423-0.426
		c0-0.234,0.189-0.425,0.423-0.425C37.157,64.278,37.346,64.469,37.346,64.703z"/>
	<path style="opacity:0.9473;fill:#FFFFFF;" d="M63.799,85.893c0,0.234-0.189,0.425-0.422,0.425c-0.233,0-0.422-0.191-0.422-0.425
		c0-0.236,0.189-0.426,0.422-0.426C63.61,85.467,63.799,85.658,63.799,85.893z"/>
	<path style="opacity:0.9003;fill:#FFFFFF;" d="M57.185,85.893c0,0.234-0.189,0.425-0.422,0.425c-0.233,0-0.422-0.191-0.422-0.425
		c0-0.236,0.189-0.426,0.422-0.426C56.996,85.467,57.185,85.658,57.185,85.893z"/>
	<path style="opacity:0.935;fill:#FFFFFF;" d="M50.572,82.04c0,0.236-0.188,0.426-0.422,0.426c-0.232,0-0.422-0.191-0.422-0.426
		c0-0.234,0.189-0.427,0.422-0.427C50.384,81.614,50.572,81.806,50.572,82.04z"/>
	<path style="opacity:0.5725;fill:#FFFFFF;" d="M50.572,66.629c0,0.236-0.188,0.426-0.422,0.426c-0.232,0-0.422-0.191-0.422-0.426
		c0-0.234,0.189-0.425,0.422-0.425C50.384,66.204,50.572,66.395,50.572,66.629z"/>
	<path style="opacity:0.7228;fill:#FFFFFF;" d="M52.226,67.594c0,0.234-0.189,0.425-0.423,0.425c-0.233,0-0.422-0.191-0.422-0.425
		c0-0.236,0.189-0.427,0.422-0.427C52.037,67.167,52.226,67.358,52.226,67.594z"/>
	<path style="opacity:0.7894;fill:#FFFFFF;" d="M77.026,58.925c0,0.234-0.189,0.425-0.422,0.425c-0.234,0-0.423-0.191-0.423-0.425
		c0-0.236,0.189-0.426,0.423-0.426C76.837,58.499,77.026,58.69,77.026,58.925z"/>
	<path style="opacity:0.8898;fill:#FFFFFF;" d="M70.413,62.777c0,0.236-0.189,0.426-0.422,0.426c-0.234,0-0.422-0.191-0.422-0.426
		c0-0.236,0.188-0.427,0.422-0.427C70.224,62.351,70.413,62.542,70.413,62.777z"/>
	<path style="opacity:0.5427;fill:#FFFFFF;" d="M60.493,87.819c0,0.234-0.189,0.425-0.422,0.425c-0.234,0-0.423-0.191-0.423-0.425
		c0-0.236,0.189-0.427,0.423-0.427C60.304,87.393,60.493,87.584,60.493,87.819z"/>
	<path style="opacity:0.8321;fill:#FFFFFF;" d="M70.413,78.188c0,0.234-0.189,0.425-0.422,0.425c-0.234,0-0.422-0.191-0.422-0.425
		c0-0.236,0.188-0.427,0.422-0.427C70.224,77.762,70.413,77.952,70.413,78.188z"/>
	<path style="opacity:0.5515;fill:#FFFFFF;" d="M63.799,97.451c0,0.234-0.189,0.425-0.422,0.425c-0.233,0-0.422-0.191-0.422-0.425
		c0-0.236,0.189-0.426,0.422-0.426C63.61,97.024,63.799,97.215,63.799,97.451z"/>
	<path style="opacity:0.7361;fill:#FFFFFF;" d="M50.572,89.745c0,0.236-0.188,0.426-0.422,0.426c-0.232,0-0.422-0.191-0.422-0.426
		c0-0.236,0.189-0.427,0.422-0.427C50.384,89.319,50.572,89.51,50.572,89.745z"/>
	<path style="opacity:0.5694;fill:#FFFFFF;" d="M70.413,93.597c0,0.236-0.189,0.426-0.422,0.426c-0.234,0-0.423-0.191-0.423-0.426
		c0-0.234,0.189-0.425,0.423-0.425C70.224,93.172,70.413,93.363,70.413,93.597z"/>
	<path style="opacity:0.7041;fill:#FFFFFF;" d="M57.185,85.893c0,0.234-0.189,0.425-0.422,0.425c-0.233,0-0.422-0.191-0.422-0.425
		c0-0.236,0.189-0.426,0.422-0.426C56.996,85.467,57.185,85.658,57.185,85.893z"/>
	<path style="opacity:0.9472;fill:#FFFFFF;" d="M80.333,99.377c0,0.236-0.189,0.427-0.422,0.427s-0.422-0.191-0.422-0.427
		c0-0.236,0.189-0.426,0.422-0.426S80.333,99.141,80.333,99.377z"/>
	<path style="opacity:0.988;fill:#FFFFFF;" d="M77.026,93.597c0,0.236-0.189,0.426-0.422,0.426c-0.234,0-0.423-0.191-0.423-0.426
		c0-0.234,0.189-0.425,0.423-0.425C76.837,93.172,77.026,93.363,77.026,93.597z"/>
	<ellipse style="opacity:0.5764;fill:#FFFFFF;" cx="63.377" cy="49.293" rx="0.422" ry="0.426"/>
	<path style="opacity:0.6501;fill:#FFFFFF;" d="M57.185,55.072c0,0.236-0.189,0.426-0.422,0.426c-0.233,0-0.422-0.191-0.422-0.426
		c0-0.234,0.189-0.425,0.422-0.425C56.996,54.647,57.185,54.838,57.185,55.072z"/>
	<path style="opacity:0.6553;fill:#FFFFFF;" d="M83.64,55.072c0,0.236-0.189,0.426-0.423,0.426c-0.233,0-0.422-0.191-0.422-0.426
		c0-0.234,0.189-0.425,0.422-0.425C83.451,54.647,83.64,54.838,83.64,55.072z"/>
	<path style="opacity:0.6531;fill:#FFFFFF;" d="M90.252,74.335c0,0.236-0.188,0.427-0.422,0.427c-0.233,0-0.422-0.191-0.422-0.427
		c0-0.234,0.189-0.425,0.422-0.425C90.065,73.91,90.252,74.1,90.252,74.335z"/>
	<path style="opacity:0.7985;fill:#FFFFFF;" d="M96.866,70.483c0,0.236-0.189,0.425-0.422,0.425c-0.232,0-0.422-0.189-0.422-0.425
		c0-0.236,0.189-0.426,0.422-0.426C96.677,70.056,96.866,70.247,96.866,70.483z"/>
	<path style="opacity:0.8668;fill:#FFFFFF;" d="M62.146,67.594c0,0.234-0.189,0.425-0.422,0.425c-0.234,0-0.422-0.191-0.422-0.425
		c0-0.236,0.188-0.427,0.422-0.427C61.957,67.167,62.146,67.358,62.146,67.594z"/>
	<path style="opacity:0.8785;fill:#FFFFFF;" d="M63.799,64.703c0,0.236-0.189,0.426-0.422,0.426c-0.233,0-0.422-0.191-0.422-0.426
		c0-0.234,0.189-0.425,0.422-0.425C63.61,64.278,63.799,64.469,63.799,64.703z"/>
	<path style="opacity:0.74;fill:#FFFFFF;" d="M62.146,83.003c0,0.236-0.189,0.427-0.422,0.427c-0.234,0-0.422-0.191-0.422-0.427
		c0-0.234,0.188-0.425,0.422-0.425C61.957,82.578,62.146,82.769,62.146,83.003z"/>
	<path style="opacity:0.9974;fill:#FFFFFF;" d="M63.799,83.966c0,0.236-0.189,0.427-0.422,0.427c-0.233,0-0.422-0.191-0.422-0.427
		c0-0.234,0.189-0.425,0.422-0.425C63.61,83.541,63.799,83.732,63.799,83.966z"/>
	<path style="opacity:0.9965;fill:#FFFFFF;" d="M65.452,81.077c0,0.236-0.189,0.427-0.422,0.427c-0.232,0-0.422-0.191-0.422-0.427
		c0-0.236,0.189-0.426,0.422-0.426C65.263,80.651,65.452,80.841,65.452,81.077z"/>
	<path style="opacity:0.5958;fill:#FFFFFF;" d="M62.146,81.077c0,0.236-0.189,0.427-0.422,0.427c-0.234,0-0.422-0.191-0.422-0.427
		c0-0.236,0.188-0.426,0.422-0.426C61.957,80.651,62.146,80.841,62.146,81.077z"/>
	<path style="opacity:0.502;fill:#FFFFFF;" d="M90.252,99.377c0,0.236-0.188,0.427-0.422,0.427c-0.233,0-0.422-0.191-0.422-0.427
		c0-0.236,0.189-0.426,0.422-0.426C90.065,98.95,90.252,99.141,90.252,99.377z"/>
	<path style="opacity:0.8656;fill:#FFFFFF;" d="M90.252,95.525c0,0.234-0.188,0.425-0.422,0.425c-0.233,0-0.422-0.191-0.422-0.425
		c0-0.236,0.189-0.426,0.422-0.426C90.065,95.098,90.252,95.289,90.252,95.525z"/>
	<path style="opacity:0.6714;fill:#FFFFFF;" d="M78.68,67.594c0,0.234-0.189,0.425-0.422,0.425c-0.234,0-0.422-0.191-0.422-0.425
		c0-0.236,0.188-0.427,0.422-0.427C78.49,67.167,78.68,67.358,78.68,67.594z"/>
	<path style="opacity:0.9386;fill:#FFFFFF;" d="M75.373,65.666c0,0.236-0.189,0.427-0.423,0.427c-0.233,0-0.422-0.191-0.422-0.427
		c0-0.234,0.189-0.425,0.422-0.425C75.184,65.241,75.373,65.432,75.373,65.666z"/>
	<path style="opacity:0.8257;fill:#FFFFFF;" d="M83.64,62.777c0,0.236-0.189,0.426-0.423,0.426c-0.233,0-0.422-0.191-0.422-0.426
		c0-0.236,0.189-0.427,0.422-0.427C83.451,62.351,83.64,62.542,83.64,62.777z"/>
	<path style="opacity:0.8822;fill:#FFFFFF;" d="M77.026,58.925c0,0.234-0.189,0.425-0.422,0.425c-0.234,0-0.423-0.191-0.423-0.425
		c0-0.236,0.189-0.426,0.423-0.426C76.837,58.499,77.026,58.69,77.026,58.925z"/>
	<path style="opacity:0.7249;fill:#FFFFFF;" d="M70.413,62.777c0,0.236-0.189,0.426-0.422,0.426c-0.234,0-0.422-0.191-0.422-0.426
		c0-0.236,0.188-0.427,0.422-0.427C70.224,62.351,70.413,62.542,70.413,62.777z"/>
	<path style="opacity:0.85;fill:#FFFFFF;" d="M96.866,85.893c0,0.234-0.189,0.425-0.422,0.425c-0.232,0-0.422-0.191-0.422-0.425
		c0-0.236,0.189-0.426,0.422-0.426C96.677,85.467,96.866,85.658,96.866,85.893z"/>
	<path style="opacity:0.7173;fill:#FFFFFF;" d="M96.866,78.188c0,0.234-0.189,0.425-0.422,0.425c-0.232,0-0.422-0.191-0.422-0.425
		c0-0.236,0.189-0.427,0.422-0.427C96.677,77.762,96.866,77.952,96.866,78.188z"/>
	<path style="opacity:0.7483;fill:#FFFFFF;" d="M100,79.771c-0.07-0.051-0.155-0.084-0.25-0.084c-0.233,0-0.422,0.191-0.422,0.427
		c0,0.236,0.189,0.426,0.422,0.426c0.094,0,0.18-0.033,0.25-0.084V79.771z"/>
	<path style="opacity:0.9308;fill:#FFFFFF;" d="M70.413,93.597c0,0.236-0.189,0.426-0.422,0.426c-0.234,0-0.422-0.191-0.422-0.426
		c0-0.234,0.188-0.425,0.422-0.425C70.224,93.172,70.413,93.363,70.413,93.597z"/>
	<path style="opacity:0.9474;fill:#FFFFFF;" d="M96.866,93.597c0,0.236-0.189,0.426-0.422,0.426c-0.232,0-0.422-0.191-0.422-0.426
		c0-0.234,0.189-0.425,0.422-0.425C96.677,93.172,96.866,93.363,96.866,93.597z"/>
	<path style="opacity:0.5499;fill:#FFFFFF;" d="M90.252,66.629c0,0.236-0.188,0.426-0.422,0.426c-0.233,0-0.422-0.191-0.422-0.426
		c0-0.234,0.189-0.425,0.422-0.425C90.065,66.204,90.252,66.395,90.252,66.629z"/>
	<path style="opacity:0.5903;fill:#FFFFFF;" d="M90.252,82.04c0,0.236-0.188,0.426-0.422,0.426c-0.233,0-0.422-0.191-0.422-0.426
		c0-0.234,0.189-0.427,0.422-0.427C90.065,81.614,90.252,81.806,90.252,82.04z"/>
</g>
</svg>
