<svg width="80" height="80" viewBox="0 0 80 80" fill="none" xmlns="http://www.w3.org/2000/svg">
<path d="M61.1094 63.0703H39.4453V67.7578H61.1094V63.0703Z" fill="#186EDF"/>
<path d="M72.9688 12.0859H39.4453V16.7734H72.9688V12.0859Z" fill="#186EDF"/>
<path d="M33.4922 10.3047V30.9219C33.4922 32.5781 32.1484 33.9219 30.4922 33.9219H9.875C8.21875 33.9219 6.875 32.5781 6.875 30.9219V10.3047C6.875 8.64844 8.21875 7.30469 9.875 7.30469H30.4922C32.1406 7.30469 33.4922 8.64844 33.4922 10.3047Z" fill="#186EDF"/>
<path d="M61.1094 24.4531H39.4453V29.1406H61.1094V24.4531Z" fill="#186EDF"/>
<path d="M33.4922 48.9219V69.5391C33.4922 71.1953 32.1484 72.5391 30.4922 72.5391H9.875C8.21875 72.5391 6.875 71.1953 6.875 69.5391V48.9219C6.875 47.2656 8.21875 45.9219 9.875 45.9219H30.4922C32.1406 45.9219 33.4922 47.2734 33.4922 48.9219Z" fill="#186EDF"/>
<path d="M72.9688 50.7031H39.4453V55.3906H72.9688V50.7031Z" fill="#186EDF"/>
</svg>
